# xmcd
#
# Track frame offsets:
#	150
#	13186
#	26228
#	39511
#	51193
#	65498
#	82493
#	95094
#	107877
#	124177
#	135344
#	147818
#	158236
#	174940
#	186887
#	196998
#	212438
#	224765
#	236933
#	248799
#	259985
#	274085
#	285808
#	300243
#	311925
#
# Disc length: 4419
#
# Revision: 1
# Processed by: cddbd v1.5.1PL0 Copyright (c) Steve Scherf et al.
# Submitted via: EasyCDDAExtractor 5.0.4.1
# Normalized: r0:DSETVAR1
#
DISCID=7b114119
DTITLE=Various Artist - COUNTRY Ultimate Collection CD1
DYEAR=2002
DGENRE=Country
TTITLE0=The Shadows - Apache
TTITLE1=Kenny Rogers - Ruby, Don't Take Your Love To Town
TTITLE2=Pat Boone - Jambalaya
TTITLE3=Johnny Cash - Ring Of Fire
TTITLE4=The Blues Brothers Band - Riders On The Sky
TTITLE5=Kimber Clayton - Jose Cuervo
TTITLE6=Mark Chestnut and George Johnes - Talking To Hank
TTITLE7=The Charlie Daniels Band - The Devil Went Down To Georgia
TTITLE8=Johnny Cash and Martin Delray - Get Rythm
TTITLE9=Johnny Cash - Michigan City Howdy Do
TTITLE10=Waylon Jennings - A'm A Ramblin
TTITLE11=Moe Bandy and Joe Stampley - Alive and Well
TTITLE12=Tanya Tucker and Delbert Mc Clinton - Tell Me About It
TTITLE13=Dolly Parton - Jolene
TTITLE14=Lynn Anderson - What A Man My Man
TTITLE15=Suzzy Bogks - Other Side Of The Hill
TTITLE16=Johnny Cash and June C - Jackson
TTITLE17=Randy Travis - Heart Of Hearts
TTITLE18=Johnny Cash - I've Been To Georgia On A Fast Train
TTITLE19=Allan Jackson - Ghattahooghee
TTITLE20=Sammus Saloon - Country Guitar N
TTITLE21=The Mavericks - Hey Good Lookin
TTITLE22=Rednex - Cotton Eye Joe
TTITLE23=Tennessee Ernie Ford - Sixteen Tons
TTITLE24=Kris Kristoferson - Me and Bobby Mc Gee
EXTD=
EXTT0=
EXTT1=
EXTT2=
EXTT3=
EXTT4=
EXTT5=
EXTT6=
EXTT7=
EXTT8=
EXTT9=
EXTT10=
EXTT11=
EXTT12=
EXTT13=
EXTT14=
EXTT15=
EXTT16=
EXTT17=
EXTT18=
EXTT19=
EXTT20=
EXTT21=
EXTT22=
EXTT23=
EXTT24=
PLAYORDER=
